<?xml version="1.0" encoding="utf-8"?>
<!-- Generator: Adobe Illustrator 23.0.3, SVG Export Plug-In . SVG Version: 6.00 Build 0)  -->
<svg version="1.1" id="Layer_1" xmlns="http://www.w3.org/2000/svg" xmlns:xlink="http://www.w3.org/1999/xlink" x="0px" y="0px"
	 viewBox="0 0 621.97 122.84" style="enable-background:new 0 0 621.97 122.84;" xml:space="preserve">
<style type="text/css">
	.st0{fill:#878787;}
</style>
<g>
	<g>
		<g>
			<path class="st0" d="M206.38,35.75v62.58h-8.58l-34.63-48.7v48.7h-7.98V35.75h8.58l34.63,49.4v-49.4H206.38z"/>
			<path class="st0" d="M257.18,88.75v6.89c-1.73,0.93-4.28,1.75-7.63,2.45c-3.36,0.7-6.77,1.05-10.23,1.05
				c-7.72,0-13.24-2-16.57-5.99c-3.33-3.99-4.99-10.58-4.99-19.76c0-8.85,1.73-15.29,5.19-19.31c3.46-4.02,8.98-6.04,16.57-6.04
				c7.05,0,12.11,1.58,15.17,4.74c3.06,3.16,4.59,8.43,4.59,15.82c0,1.33-0.03,2.56-0.1,3.69c-0.07,1.13-0.2,2.5-0.4,4.09h-32.74
				c0.07,5.46,1.18,9.35,3.34,11.68c2.16,2.33,5.9,3.49,11.23,3.49c2.86,0,5.85-0.27,8.98-0.8
				C252.73,90.21,255.25,89.54,257.18,88.75z M251.79,67.49c-0.07-4.39-1.03-7.5-2.89-9.33c-1.86-1.83-4.99-2.74-9.38-2.74
				c-4.92,0-8.4,1.05-10.43,3.14c-2.03,2.1-3.04,5.77-3.04,11.03h25.65c0-0.13,0.02-0.45,0.05-0.95
				C251.78,68.14,251.79,67.75,251.79,67.49z"/>
			<path class="st0" d="M298.3,90.64v6.89c-1.06,0.47-2.51,0.85-4.34,1.15c-1.83,0.3-3.58,0.45-5.24,0.45
				c-5.99,0-10.26-1.33-12.82-3.99c-2.56-2.66-3.84-7.25-3.84-13.77V56.01h-7.39v-6.99h7.48l1.3-11.98h6.79v11.98h17.57v6.99h-17.57
				v25.05c0,4.06,0.75,6.82,2.25,8.28c1.5,1.46,4.14,2.2,7.93,2.2c1.2,0,2.58-0.1,4.14-0.3C296.12,91.04,297.37,90.84,298.3,90.64z"
				/>
			<path class="st0" d="M352.69,80.16c0,6.39-1.8,11.01-5.39,13.87c-3.59,2.86-9.28,4.29-17.07,4.29h-24.45V35.75h24.45
				c7.05,0,12.06,1.2,15.02,3.59c2.96,2.4,4.44,6.49,4.44,12.28c0,3.93-0.6,6.92-1.8,8.98c-1.2,2.06-3.39,3.56-6.59,4.49
				c3.79,0.67,6.64,2.25,8.53,4.74C351.75,72.33,352.69,75.77,352.69,80.16z M338.62,53.32c0-2.86-0.62-4.84-1.85-5.94
				c-1.23-1.1-3.41-1.65-6.54-1.65h-12.48V61.9h12.48c2.99,0,5.14-0.66,6.44-2C337.97,58.57,338.62,56.38,338.62,53.32z
				 M341.12,79.36c0-3.06-0.82-5.19-2.45-6.39c-1.63-1.2-4.44-1.8-8.43-1.8h-12.48v16.77h12.48c3.99,0,6.8-0.63,8.43-1.9
				C340.3,84.79,341.12,82.56,341.12,79.36z"/>
			<path class="st0" d="M372.65,99.23c-5.06,0-8.77-1.25-11.13-3.74c-2.36-2.5-3.54-6.4-3.54-11.73c0-5.45,1.41-9.31,4.24-11.58
				c2.83-2.26,7.7-3.39,14.62-3.39c1.93,0,3.89,0.1,5.89,0.3s3.73,0.47,5.19,0.8v-4.19c0-2.59-0.8-4.49-2.4-5.69
				c-1.6-1.2-4.13-1.8-7.58-1.8c-3.13,0-5.91,0.1-8.33,0.3c-2.43,0.2-4.74,0.53-6.94,1v-9.68c2.53-0.6,5.27-1.05,8.23-1.35
				c2.96-0.3,6.47-0.45,10.53-0.45c6.05,0,10.58,1.38,13.57,4.14c2.99,2.76,4.49,6.9,4.49,12.43v33.73h-10.68l-0.5-4.39h-0.2
				c-2.13,1.6-4.58,2.88-7.34,3.84C378.03,98.74,375.31,99.23,372.65,99.23z M378.24,77.07c-3.59,0-6.06,0.42-7.39,1.25
				c-1.33,0.83-2,2.41-2,4.74c0,2.26,0.55,3.88,1.65,4.84c1.1,0.96,2.98,1.45,5.64,1.45c1.93,0,3.97-0.28,6.14-0.85
				c2.16-0.56,4.04-1.28,5.64-2.15v-8.48c-1.6-0.27-3.18-0.46-4.74-0.6C381.62,77.14,379.97,77.07,378.24,77.07z"/>
			<path class="st0" d="M421.76,31.96v66.37h-11.58V31.96H421.76z"/>
			<path class="st0" d="M444.21,99.23c-5.06,0-8.77-1.25-11.13-3.74c-2.36-2.5-3.54-6.4-3.54-11.73c0-5.45,1.41-9.31,4.24-11.58
				c2.83-2.26,7.7-3.39,14.62-3.39c1.93,0,3.89,0.1,5.89,0.3s3.73,0.47,5.19,0.8v-4.19c0-2.59-0.8-4.49-2.4-5.69
				c-1.6-1.2-4.13-1.8-7.58-1.8c-3.13,0-5.91,0.1-8.33,0.3c-2.43,0.2-4.74,0.53-6.94,1v-9.68c2.53-0.6,5.27-1.05,8.23-1.35
				c2.96-0.3,6.47-0.45,10.53-0.45c6.05,0,10.58,1.38,13.57,4.14c2.99,2.76,4.49,6.9,4.49,12.43v33.73h-10.68l-0.5-4.39h-0.2
				c-2.13,1.6-4.58,2.88-7.34,3.84C449.58,98.74,446.87,99.23,444.21,99.23z M449.8,77.07c-3.59,0-6.06,0.42-7.39,1.25
				c-1.33,0.83-2,2.41-2,4.74c0,2.26,0.55,3.88,1.65,4.84c1.1,0.96,2.98,1.45,5.64,1.45c1.93,0,3.97-0.28,6.14-0.85
				c2.16-0.56,4.04-1.28,5.64-2.15v-8.48c-1.6-0.27-3.18-0.46-4.74-0.6C453.18,77.14,451.53,77.07,449.8,77.07z"/>
			<path class="st0" d="M493.31,98.33h-11.58v-49.3h9.98l0.5,4.99h0.3c2.33-2.06,4.84-3.58,7.54-4.54c2.69-0.96,5.87-1.45,9.53-1.45
				c5.46,0,9.61,1.36,12.48,4.09c2.86,2.73,4.29,6.75,4.29,12.08v34.13h-11.58V65.69c0-2.4-0.78-4.21-2.35-5.44
				c-1.56-1.23-3.88-1.85-6.94-1.85c-2.2,0-4.33,0.28-6.39,0.85c-2.06,0.57-3.99,1.41-5.79,2.54V98.33z"/>
			<path class="st0" d="M572.55,85.85v9.68c-1.73,1-4.31,1.86-7.73,2.59c-3.43,0.73-6.97,1.1-10.63,1.1
				c-7.05,0-12.01-1.9-14.87-5.69c-2.86-3.79-4.29-10.44-4.29-19.96c0-9.38,1.85-15.98,5.54-19.81c3.69-3.83,10.06-5.74,19.11-5.74
				c2.2,0,4.18,0.05,5.94,0.15c1.76,0.1,3.64,0.28,5.64,0.55V59c-2.6-0.2-4.86-0.35-6.79-0.45s-3.53-0.15-4.79-0.15
				c-5.46,0-9,0.97-10.63,2.89c-1.63,1.93-2.45,6.02-2.45,12.28c0,6.06,0.65,10.05,1.95,11.98c1.3,1.93,4.01,2.89,8.13,2.89
				c2.73,0,5.54-0.25,8.43-0.75S570.49,86.58,572.55,85.85z"/>
			<path class="st0" d="M618.96,86.25v9.38c-1.66,1-4.28,1.85-7.83,2.54c-3.56,0.7-7.27,1.05-11.13,1.05c-7.85,0-13.49-2-16.92-5.99
				c-3.43-3.99-5.14-10.58-5.14-19.76c0-8.85,1.8-15.3,5.39-19.36c3.59-4.06,9.28-6.09,17.07-6.09c7.52,0,12.84,1.56,15.97,4.69
				c3.13,3.13,4.69,8.48,4.69,16.07c0,1.4-0.03,2.68-0.1,3.84c-0.07,1.17-0.2,2.78-0.4,4.84h-30.94c0.07,4.13,0.98,7.02,2.74,8.68
				c1.76,1.66,4.91,2.5,9.43,2.5c2.99,0,6.09-0.23,9.28-0.7C614.27,87.48,616.9,86.92,618.96,86.25z M600.4,58.11
				c-4.06,0-6.87,0.8-8.43,2.4c-1.56,1.6-2.35,4.49-2.35,8.68h20.86v-2.1c-0.07-3.39-0.83-5.74-2.29-7.04
				C606.72,58.76,604.13,58.11,600.4,58.11z"/>
		</g>
	</g>
	<g>
		<path class="st0" d="M11.91,80.16c-2.75-3.69-4.64-6.7-5.65-9.02l18.9-18.9c1.74,3.48,4.33,7.51,7.77,12.11
			c3.44,4.6,7.15,8.89,11.13,12.87c2.46,2.46,4.47,3.89,6.03,4.29c1.56,0.4,3.1-0.16,4.62-1.68c0.94-0.94,1.47-1.79,1.57-2.55
			c0.11-0.76-0.35-2.01-1.36-3.75l-8.15-13.58c-4.27-7.17-6.05-13.25-5.32-18.25c0.72-5,3.66-10.07,8.8-15.21
			c6.81-6.81,13.52-10.59,20.15-11.35c6.63-0.76,13.52,1.5,20.69,6.79l8.57-8.57C89.17,5.01,75.88,0,61.42,0C27.5,0,0,27.5,0,61.42
			c0,14.46,5.01,27.75,13.37,38.24l8.09-8.09C17.85,87.66,14.66,83.85,11.91,80.16z"/>
		<path class="st0" d="M110.3,24.24l-7.91,7.91c2.9,3.04,5.38,5.92,7.44,8.64c2.06,2.72,3.71,5.27,4.94,7.66L96.85,66.37
			c-3.77-5.36-6.7-9.31-8.8-11.84c-2.1-2.54-4.38-5.03-6.84-7.5c-2.25-2.25-4.18-3.53-5.81-3.86c-1.63-0.33-3.2,0.27-4.73,1.79
			c-0.8,0.8-1.2,1.56-1.19,2.28c0,0.73,0.4,1.78,1.2,3.15l7.71,13.14c2.9,4.93,4.74,8.65,5.54,11.19c0.8,2.53,1.12,4.96,0.98,7.28
			c-0.29,2.61-1.27,5.29-2.93,8.04c-1.67,2.75-4.09,5.72-7.28,8.91c-7.1,7.1-14.03,10.84-20.8,11.24c-6.77,0.4-13.89-2.34-21.34-8.2
			l-8.31,8.31c10.32,7.86,23.2,12.54,37.18,12.54c33.92,0,61.42-27.5,61.42-61.42C122.84,47.44,118.17,34.56,110.3,24.24z"/>
	</g>
</g>
</svg>
